<?xml version="1.0" encoding="UTF-8"?>
<!DOCTYPE svg PUBLIC "-//W3C//DTD SVG 1.1//EN" "http://www.w3.org/Graphics/SVG/1.1/DTD/svg11.dtd">
<!-- Creator: CorelDRAW (OEM Version) -->
<svg xmlns="http://www.w3.org/2000/svg" xml:space="preserve" width="2028px" height="500px" version="1.1" style="shape-rendering:geometricPrecision; text-rendering:geometricPrecision; image-rendering:optimizeQuality; fill-rule:evenodd; clip-rule:evenodd"
viewBox="0 0 5545.926 1366.835"
 xmlns:xlink="http://www.w3.org/1999/xlink"
 xmlns:xodm="http://www.corel.com/coreldraw/odm/2003">
 <defs>
  <style type="text/css">
   <![CDATA[
    .fil0 {fill:#86B300}
    .fil1 {fill:white;fill-rule:nonzero}
   ]]>
  </style>
 </defs>
 <g id="Layer_x0020_1">
  <metadata id="CorelCorpID_0Corel-Layer"/>
  <g id="_2964121661664">
   <path class="fil0" d="M583.928 1324.299l-94.023 -258.317c-2.367,-6.505 -8.261,-10.63 -15.181,-10.63l-274.902 0c-27.689,0 -51.266,-16.515 -60.736,-42.534l-135.093 -371.163c-10.6,-29.128 0.445,-60.878 26.837,-77.138l900.412 -554.681c22.44,-13.822 49.385,-13.031 70.976,2.088 95.901,67.15 191.802,134.299 287.703,201.452 21.594,15.119 31.553,40.166 26.236,65.984l-213.281 1035.87c-6.251,30.361 -32.31,51.602 -63.306,51.602 -131.633,0.003 -263.27,0 -394.903,-0.003 -27.692,0.003 -51.273,-16.509 -60.739,-42.53zm416.304 -1029.157l-713.694 439.657c-6.247,3.847 -9.069,11.103 -7.072,18.158 2,7.059 8.21,11.758 15.547,11.755l383.217 0.003c6.919,0 12.814,4.126 15.18,10.631l131.066 360.101c2.51,6.893 9.046,11.12 16.362,10.587 7.314,-0.54 13.168,-5.674 14.648,-12.858l169.043 -821.02c1.327,-6.455 -1.161,-12.716 -6.556,-16.495 -5.399,-3.775 -12.132,-3.975 -17.741,-0.519z"/>
   <path class="fil1" d="M2101.288 910.765l0 144.543 -87.45 0c-78.547,0 -117.01,-34.011 -115.393,-102.033 -22.668,35.634 -50.611,62.759 -83.811,81.382 -33.196,18.627 -73.277,27.937 -120.242,27.937 -69.641,0 -125.715,-15.992 -168.228,-47.976 -42.509,-31.987 -63.771,-77.132 -63.771,-135.433 0,-66.399 24.498,-117.617 73.492,-153.645 48.984,-36.038 120.042,-54.057 213.162,-54.057l123.892 0 0 -30.361c0,-28.347 -10.522,-50.814 -31.583,-67.417 -21.051,-16.597 -49.389,-24.902 -85.023,-24.902 -31.573,0 -57.486,6.883 -77.729,20.654 -20.25,13.768 -32.391,32.391 -36.442,55.87l-165.186 0c5.66,-63.971 34.008,-113.563 85.023,-148.793 51.007,-35.22 118.625,-52.835 202.843,-52.835 88.258,0 156.484,19.435 204.66,58.301 48.18,38.87 72.269,95.151 72.269,168.836l0 219.847c0,15.385 3.243,25.913 9.721,31.584 6.479,5.663 16.597,8.498 30.361,8.498l19.435 0zm-228.349 -125.104l-125.108 0c-35.623,0 -63.363,7.086 -83.202,21.255 -19.839,14.168 -29.753,34.211 -29.753,60.121 0,21.869 8.298,39.274 24.901,52.23 16.596,12.957 39.07,19.435 67.407,19.435 44.54,0 79.76,-12.756 105.673,-38.262 25.913,-25.509 39.274,-59.72 40.082,-102.63l0 -12.149zm212.561 -354.676l183.408 0 150.614 449.412 148.185 -449.412 179.762 0 -224.702 624.323 -212.565 0 -224.702 -624.323zm805.296 -259.925c28.344,0 51.823,9.109 70.45,27.329 18.626,18.219 27.933,41.093 27.933,68.623 0,27.536 -9.307,50.61 -27.933,69.237 -18.627,18.623 -42.106,27.933 -70.45,27.933 -28.341,0 -52.027,-9.31 -71.057,-27.933 -19.021,-18.627 -28.541,-41.701 -28.541,-69.237 0,-27.53 9.52,-50.404 28.541,-68.623 19.03,-18.22 42.716,-27.329 71.057,-27.329zm-86.238 259.925l171.26 0 0 624.323 -171.26 0 0 -624.323zm914.612 0l0 606.1c0,81.79 -27.125,146.973 -81.382,195.557 -54.251,48.587 -138.465,72.874 -252.636,72.874 -88.268,0 -159.526,-19.435 -213.777,-58.301 -54.25,-38.87 -83.406,-93.929 -87.456,-165.186l172.479 0c8.098,29.96 24.093,53.035 47.976,69.234 23.889,16.192 55.269,24.287 94.138,24.287 48.581,0 86.235,-12.139 112.956,-36.432 26.721,-24.297 40.082,-60.325 40.082,-108.107l0 -65.588c-45.345,57.493 -109.72,86.235 -193.126,86.235 -55.062,0 -104.461,-12.954 -148.182,-38.867 -43.729,-25.906 -77.937,-62.548 -102.638,-109.917 -24.697,-47.378 -37.046,-102.64 -37.046,-165.803 0,-62.345 12.349,-117.414 37.046,-165.186 24.701,-47.773 59.113,-84.619 103.245,-110.532 44.133,-25.913 93.728,-38.869 148.794,-38.869 81.78,0 146.562,31.583 194.335,94.746l14.579 -86.245 150.613 0zm-320.658 483.42c46.153,0 82.992,-16.189 110.532,-48.58 27.529,-32.392 41.294,-74.494 41.294,-126.32 0,-52.634 -13.765,-95.551 -41.294,-128.751 -27.54,-33.199 -64.379,-49.802 -110.532,-49.802 -46.156,0 -83.205,16.399 -111.139,49.195 -27.94,32.795 -41.908,75.505 -41.908,128.139 0,52.641 13.968,95.147 41.908,127.539 27.934,32.391 64.983,48.58 111.139,48.58zm1045.73 -3.64l0 144.543 -87.45 0c-78.524,0 -117.01,-34.011 -115.39,-102.033 -22.671,35.634 -50.614,62.759 -83.811,81.382 -33.199,18.627 -73.281,27.937 -120.245,27.937 -69.641,0 -125.725,-15.999 -168.228,-47.976 -42.503,-31.974 -63.771,-77.132 -63.771,-135.433 0,-66.399 24.504,-117.617 73.492,-153.645 48.984,-36.031 120.041,-54.057 213.162,-54.057l123.892 0 0 -30.361c0,-28.347 -10.529,-50.828 -31.58,-67.417 -21.041,-16.59 -49.392,-24.902 -85.026,-24.902 -31.573,0 -57.486,6.889 -77.729,20.654 -20.243,13.768 -32.392,32.391 -36.442,55.87l-165.186 0c5.66,-63.971 34.014,-113.577 85.022,-148.793 50.995,-35.213 118.626,-52.835 202.844,-52.835 88.258,0 156.483,19.435 204.66,58.301 48.179,38.87 72.269,95.171 72.269,168.836l0 219.847c0,15.364 3.249,25.927 9.721,31.584 6.465,5.656 16.596,8.498 30.361,8.498l19.435 0zm-228.349 -125.104l-125.105 0c-35.606,0 -63.366,7.086 -83.205,21.255 -19.839,14.168 -29.754,34.211 -29.754,60.121 0,21.869 8.312,39.28 24.902,52.23 16.589,12.943 39.07,19.435 67.407,19.435 44.54,0 79.76,-12.756 105.673,-38.262 25.913,-25.509 40.082,-59.714 40.082,-102.63l0 -12.149zm335.234 -210.13l-103.245 0 0 -144.546 103.245 0 0 -174.899 171.26 0 0 174.899 142.114 0 0 144.546 -142.114 0 0 273.286c0,21.846 4.672,37.661 13.975,47.375 9.303,9.701 24.894,14.573 46.76,14.573l88.666 0 0 144.543 -142.108 0c-119.016,0 -178.553,-59.517 -178.553,-178.55l0 -301.227zm358.315 168.829c0,-64.782 13.167,-121.27 39.474,-169.44 26.304,-48.173 63.17,-85.443 110.531,-111.747 47.365,-26.31 102.234,-39.474 164.589,-39.474 63.156,0 118.836,12.362 167.009,37.046 48.169,24.695 85.837,59.531 112.956,104.461 27.118,44.934 41.331,97.775 41.908,158.504 0.211,21.849 -1.616,41.304 -4.859,58.304l-453.055 0 0 4.859c0,45.511 18.634,80.989 43.725,106.885 25.088,25.906 59.52,38.87 103.242,38.87 34.826,0 63.778,-7.49 86.852,-22.467 23.075,-14.98 38.255,-37.05 45.548,-66.199l168.826 0c-6.478,41.297 -22.263,78.548 -47.368,111.747 -25.102,33.2 -58.301,59.313 -99.598,78.344 -41.294,19.027 -88.669,28.541 -142.112,28.541 -69.641,0 -129.776,-12.963 -180.373,-38.87 -50.6,-25.899 -89.473,-62.959 -116.599,-111.139 -27.125,-48.176 -40.696,-104.253 -40.696,-168.225zm465.207 -74.089c-5.67,-38.062 -21.268,-67.411 -46.767,-88.058 -25.503,-20.647 -57.69,-30.975 -96.56,-30.975 -37.25,0 -68.636,10.739 -94.135,32.187 -25.496,21.452 -40.69,50.404 -45.549,86.846l283.011 0z"/>
  </g>
 </g>
</svg>
